# xmcd
#
# Track frame offsets:
#	150
#	11312
#	20558
#	37860
#	55143
#	72437
#	88010
#	113279
#	130366
#	140082
#	155896
#	173834
#	183900
#	201474
#	218818
#	235100
#
# Disc length: 3306 seconds
#
# Revision: 1
# Processed by: cddbd v1.5.2PL0 Copyright (c) Steve Scherf et al.
# Submitted via: audiograbber 1.83.01
#
DISCID=dc0ce810
DTITLE=Dennis Schütze - Schütze and Stückle Acoustic Blues - The Full Spectrum Of
DTITLE=Sound
DYEAR=1997
DGENRE=Blues
TTITLE0=Trying To Make London
TTITLE1=Stranger Blues
TTITLE2=San Diego Serenade
TTITLE3=When You've Got A Good Friend
TTITLE4=After You've Gone
TTITLE5=Sitting On Top Of The World
TTITLE6=Crossroads
TTITLE7=I Think It's Gonna Work Out Fine
TTITLE8=Fall
TTITLE9=Kindhearted Woman Blues
TTITLE10=You Can't Get That Stuff
TTITLE11=Railroad Man
TTITLE12=Sixteen Tons
TTITLE13=Hoochie Coochie Man
TTITLE14=Rambling Blues
TTITLE15=It Hurts Me Too
EXTD=
EXTT0=
EXTT1=
EXTT2=
EXTT3=
EXTT4=
EXTT5=
EXTT6=
EXTT7=
EXTT8=
EXTT9=
EXTT10=
EXTT11=
EXTT12=
EXTT13=
EXTT14=
EXTT15=
PLAYORDER=
